<mxfile host="Electron" modified="2024-02-05T21:03:31.442Z" agent="Mozilla/5.0 (X11; Linux x86_64) AppleWebKit/537.36 (KHTML, like Gecko) draw.io/23.0.2 Chrome/120.0.6099.109 Electron/28.1.0 Safari/537.36" etag="43Tx8O3Bq2lKDfOb0lKi" version="23.0.2" type="device">
  <diagram name="Page-1" id="zN10-b8mrIUTgmzSmunU">
    <mxGraphModel dx="880" dy="523" grid="1" gridSize="10" guides="1" tooltips="1" connect="1" arrows="1" fold="1" page="1" pageScale="1" pageWidth="850" pageHeight="1100" math="0" shadow="0">
      <root>
        <mxCell id="0" />
        <mxCell id="1" parent="0" />
        <mxCell id="tp5Fp-2BB53YOYL3dspl-5" style="edgeStyle=orthogonalEdgeStyle;rounded=0;orthogonalLoop=1;jettySize=auto;html=1;" edge="1" parent="1" source="tp5Fp-2BB53YOYL3dspl-1" target="tp5Fp-2BB53YOYL3dspl-3">
          <mxGeometry relative="1" as="geometry">
            <Array as="points">
              <mxPoint x="398" y="230" />
              <mxPoint x="220" y="230" />
            </Array>
          </mxGeometry>
        </mxCell>
        <mxCell id="tp5Fp-2BB53YOYL3dspl-6" style="edgeStyle=orthogonalEdgeStyle;rounded=0;orthogonalLoop=1;jettySize=auto;html=1;" edge="1" parent="1" source="tp5Fp-2BB53YOYL3dspl-1" target="tp5Fp-2BB53YOYL3dspl-2">
          <mxGeometry relative="1" as="geometry" />
        </mxCell>
        <mxCell id="tp5Fp-2BB53YOYL3dspl-7" style="edgeStyle=orthogonalEdgeStyle;rounded=0;orthogonalLoop=1;jettySize=auto;html=1;" edge="1" parent="1" source="tp5Fp-2BB53YOYL3dspl-1" target="tp5Fp-2BB53YOYL3dspl-4">
          <mxGeometry relative="1" as="geometry">
            <Array as="points">
              <mxPoint x="398" y="230" />
              <mxPoint x="580" y="230" />
            </Array>
          </mxGeometry>
        </mxCell>
        <mxCell id="tp5Fp-2BB53YOYL3dspl-1" value="" style="dashed=0;outlineConnect=0;html=1;align=center;labelPosition=center;verticalLabelPosition=bottom;verticalAlign=top;shape=mxgraph.weblogos.github" vertex="1" parent="1">
          <mxGeometry x="360" y="120" width="75" height="75" as="geometry" />
        </mxCell>
        <mxCell id="tp5Fp-2BB53YOYL3dspl-15" style="edgeStyle=orthogonalEdgeStyle;rounded=0;orthogonalLoop=1;jettySize=auto;html=1;entryX=1;entryY=0.5;entryDx=0;entryDy=0;" edge="1" parent="1" source="tp5Fp-2BB53YOYL3dspl-2" target="tp5Fp-2BB53YOYL3dspl-14">
          <mxGeometry relative="1" as="geometry" />
        </mxCell>
        <mxCell id="tp5Fp-2BB53YOYL3dspl-2" value="master" style="rounded=1;whiteSpace=wrap;html=1;" vertex="1" parent="1">
          <mxGeometry x="337.5" y="280" width="120" height="60" as="geometry" />
        </mxCell>
        <mxCell id="tp5Fp-2BB53YOYL3dspl-3" value="gh-hosting" style="rounded=1;whiteSpace=wrap;html=1;" vertex="1" parent="1">
          <mxGeometry x="160" y="280" width="120" height="60" as="geometry" />
        </mxCell>
        <mxCell id="tp5Fp-2BB53YOYL3dspl-10" style="edgeStyle=orthogonalEdgeStyle;rounded=0;orthogonalLoop=1;jettySize=auto;html=1;" edge="1" parent="1" source="tp5Fp-2BB53YOYL3dspl-4" target="tp5Fp-2BB53YOYL3dspl-2">
          <mxGeometry relative="1" as="geometry" />
        </mxCell>
        <mxCell id="tp5Fp-2BB53YOYL3dspl-12" style="edgeStyle=orthogonalEdgeStyle;rounded=0;orthogonalLoop=1;jettySize=auto;html=1;entryX=0.5;entryY=0;entryDx=0;entryDy=0;" edge="1" parent="1" source="tp5Fp-2BB53YOYL3dspl-4" target="tp5Fp-2BB53YOYL3dspl-11">
          <mxGeometry relative="1" as="geometry">
            <Array as="points">
              <mxPoint x="680" y="310" />
            </Array>
          </mxGeometry>
        </mxCell>
        <mxCell id="tp5Fp-2BB53YOYL3dspl-4" value="dev" style="rounded=1;whiteSpace=wrap;html=1;" vertex="1" parent="1">
          <mxGeometry x="520" y="280" width="120" height="60" as="geometry" />
        </mxCell>
        <mxCell id="tp5Fp-2BB53YOYL3dspl-13" style="edgeStyle=orthogonalEdgeStyle;rounded=0;orthogonalLoop=1;jettySize=auto;html=1;" edge="1" parent="1" source="tp5Fp-2BB53YOYL3dspl-11" target="tp5Fp-2BB53YOYL3dspl-4">
          <mxGeometry relative="1" as="geometry">
            <Array as="points">
              <mxPoint x="580" y="410" />
            </Array>
          </mxGeometry>
        </mxCell>
        <mxCell id="tp5Fp-2BB53YOYL3dspl-11" value="features" style="rounded=1;whiteSpace=wrap;html=1;" vertex="1" parent="1">
          <mxGeometry x="620" y="380" width="120" height="60" as="geometry" />
        </mxCell>
        <mxCell id="tp5Fp-2BB53YOYL3dspl-16" style="edgeStyle=orthogonalEdgeStyle;rounded=0;orthogonalLoop=1;jettySize=auto;html=1;entryX=0.5;entryY=1;entryDx=0;entryDy=0;" edge="1" parent="1" source="tp5Fp-2BB53YOYL3dspl-14" target="tp5Fp-2BB53YOYL3dspl-3">
          <mxGeometry relative="1" as="geometry">
            <Array as="points">
              <mxPoint x="220" y="400" />
            </Array>
          </mxGeometry>
        </mxCell>
        <mxCell id="tp5Fp-2BB53YOYL3dspl-14" value="release" style="ellipse;whiteSpace=wrap;html=1;aspect=fixed;" vertex="1" parent="1">
          <mxGeometry x="270" y="360" width="80" height="80" as="geometry" />
        </mxCell>
        <mxCell id="tp5Fp-2BB53YOYL3dspl-18" style="edgeStyle=orthogonalEdgeStyle;rounded=0;orthogonalLoop=1;jettySize=auto;html=1;" edge="1" parent="1" source="tp5Fp-2BB53YOYL3dspl-17" target="tp5Fp-2BB53YOYL3dspl-3">
          <mxGeometry relative="1" as="geometry" />
        </mxCell>
        <mxCell id="tp5Fp-2BB53YOYL3dspl-17" value="Actor" style="shape=umlActor;verticalLabelPosition=bottom;verticalAlign=top;html=1;outlineConnect=0;" vertex="1" parent="1">
          <mxGeometry x="60" y="280" width="30" height="60" as="geometry" />
        </mxCell>
      </root>
    </mxGraphModel>
  </diagram>
</mxfile>
